<svg id="visual" viewBox="0 0 2000 1500" width="2000" height="1500" xmlns="http://www.w3.org/2000/svg" xmlns:xlink="http://www.w3.org/1999/xlink" version="1.1"><path d="M0 790L66.7 765.5C133.3 741 266.7 692 400 687.2C533.3 682.3 666.7 721.7 800 759C933.3 796.3 1066.7 831.7 1200 845.7C1333.3 859.7 1466.7 852.3 1600 817.2C1733.3 782 1866.7 719 1933.3 687.5L2000 656L2000 1501L1933.3 1501C1866.7 1501 1733.3 1501 1600 1501C1466.7 1501 1333.3 1501 1200 1501C1066.7 1501 933.3 1501 800 1501C666.7 1501 533.3 1501 400 1501C266.7 1501 133.3 1501 66.7 1501L0 1501Z" fill="#FDF6EC" stroke-linecap="round" stroke-linejoin="miter"></path></svg>