<svg id="visual" viewBox="0 0 9000 9000" width="9000" height="9000" xmlns="http://www.w3.org/2000/svg" xmlns:xlink="http://www.w3.org/1999/xlink" version="1.1"><path d="M0 4748L300 4600.5C600 4453 1200 4158 1800 4128.3C2400 4098.7 3000 4334.3 3600 4558.3C4200 4782.3 4800 4994.7 5400 5078.5C6000 5162.3 6600 5117.7 7200 4906.5C7800 4695.3 8400 4317.7 8700 4128.8L9000 3940L9000 9001L8700 9001C8400 9001 7800 9001 7200 9001C6600 9001 6000 9001 5400 9001C4800 9001 4200 9001 3600 9001C3000 9001 2400 9001 1800 9001C1200 9001 600 9001 300 9001L0 9001Z" fill="#FDF6EC" stroke-linecap="round" stroke-linejoin="miter"></path></svg>