<svg id="visual" viewBox="0 0 9000 9000" width="9000" height="9000" xmlns="http://www.w3.org/2000/svg" xmlns:xlink="http://www.w3.org/1999/xlink" version="1.1"><path d="M0 4941L300 4734.8C600 4528.7 1200 4116.3 1800 4112.3C2400 4108.3 3000 4512.7 3600 4644.2C4200 4775.7 4800 4634.3 5400 4480.3C6000 4326.3 6600 4159.7 7200 4230C7800 4300.3 8400 4607.7 8700 4761.3L9000 4915L9000 9001L8700 9001C8400 9001 7800 9001 7200 9001C6600 9001 6000 9001 5400 9001C4800 9001 4200 9001 3600 9001C3000 9001 2400 9001 1800 9001C1200 9001 600 9001 300 9001L0 9001Z" fill="#FDF6EC" stroke-linecap="round" stroke-linejoin="miter"></path></svg>