<svg id="visual" viewBox="0 0 9000 9000" width="9000" height="9000" xmlns="http://www.w3.org/2000/svg" xmlns:xlink="http://www.w3.org/1999/xlink" version="1.1">
  <path d="M0 4500L300 4293.8C600 4087.7 1200 3675.3 1800 3671.3C2400 3667.3 3000 4071.7 3600 4203.2C4200 4334.7 4800 4193.3 5400 4040.3C6000 3886.3 6600 3719.7 7200 3790C7800 3860.3 8400 4167.7 8700 4321.3L9000 4475L9000 9001L8700 9001C8400 9001 7800 9001 7200 9001C6600 9001 6000 9001 5400 9001C4800 9001 4200 9001 3600 9001C3000 9001 2400 9001 1800 9001C1200 9001 600 9001 300 9001L0 9001Z" 
  fill="#FDF6EC" stroke-linecap="round" stroke-linejoin="miter"></path>
</svg>
